#!OML:ASF F:\VICON\USERDATA\INSTALL\rory3\rory3.ASF
:FULLY-SPECIFIED
:DEGREES
1132
root 0.695039 17.909 -3.50305 4.63662 6.36868 0.37768
lowerback 18.6627 3.20613 0.141771
upperback 4.81216 4.08729 -2.32723
thorax -5.05335 2.00797 -3.47915
lowerneck -10.7278 -3.09194 -7.1967
upperneck 10.7753 -4.33617 10.208
head 5.38552 -1.73137 4.05163
rclavicle 2.28602e-015 2.8625e-014
rhumerus 21.5501 -30.4827 -32.6683
rradius 47.0691
rwrist -6.57651
rhand -22.8577 9.02117
rfingers 7.12502
rthumb 3.58047 -20.9285
lclavicle 2.28602e-015 2.8625e-014
lhumerus -30.7349 11.9883 44.2352
lradius 30.4898
lwrist -1.27106
lhand -36.1058 21.7643
lfingers 7.12502
lthumb -9.21193 51.5431
rfemur -11.3607 17.4085 2.41598
rtibia 26.5662
rfoot -21.1837 -19.0136
rtoes -11.6345
lfemur -25.3755 -0.460689 -5.82112
ltibia 35.5976
lfoot -11.1007 4.11223
ltoes -12.6718
1133
root 0.666026 17.9195 -3.46872 4.30349 6.02544 0.282456
lowerback 18.1131 3.16023 0.00639608
upperback 4.75179 4.00478 -2.42817
thorax -4.83411 1.97234 -3.45708
lowerneck -10.8031 -3.02041 -7.06485
upperneck 10.7623 -4.2697 10.3116
head 5.38807 -1.68495 4.06791
rclavicle 3.63776e-014 -2.42517e-014
rhumerus 21.5275 -30.9995 -32.8245
rradius 47.249
rwrist -6.57666
rhand -23.3038 8.94883
rfingers 7.12502
rthumb 3.14973 -21.0077
lclavicle 3.63776e-014 -2.42517e-014
lhumerus -30.469 11.6407 44.4279
lradius 31.1486
lwrist -1.16578
lhand -36.0676 22.171
lfingers 7.12502
lthumb -9.17505 51.9514
rfemur -10.7074 17.8709 2.72238
rtibia 25.9755
rfoot -21.2061 -18.9134
rtoes -10.835
lfemur -24.5122 -0.481851 -5.59615
ltibia 35.1093
lfoot -11.1145 4.35123
ltoes -12.7126
1134
root 0.637484 17.9378 -3.431 3.95302 5.5761 0.144514
lowerback 17.7063 3.21121 0.00848059
upperback 4.66864 4.06658 -2.62182
thorax -4.68897 2.00517 -3.65287
lowerneck -11.0164 -3.04066 -6.72171
upperneck 10.7608 -4.35388 10.3921
head 5.42691 -1.70049 4.02769
rclavicle -9.54166e-015 2.62396e-014
rhumerus 21.0631 -31.576 -32.7092
rradius 47.453
rwrist -6.71906
rhand -24.0551 8.93576
rfingers 7.12502
rthumb 2.42412 -21.0302
lclavicle -9.54166e-015 2.62396e-014
lhumerus -29.9068 11.0202 44.5944
lradius 31.7379
lwrist -0.816148
lhand -36.1625 22.0423
lfingers 7.12502
lthumb -9.26658 51.8186
rfemur -10.1466 18.2211 3.096
rtibia 25.4044
rfoot -20.6826 -19.0807
rtoes -11.6921
lfemur -23.5589 -0.47545 -5.33537
ltibia 34.61
lfoot -11.2046 4.67369
ltoes -13.392
1135
root 0.617153 17.9599 -3.38562 3.579 5.14857 0.0639
lowerback 17.1922 3.19979 0.0219326
upperback 4.64705 4.05559 -2.76814
thorax -4.42767 2.00487 -3.77834
lowerneck -11.2338 -3.0064 -6.5971
upperneck 10.7308 -4.33108 10.5026
head 5.453 -1.67138 4.0426
rclavicle 3.598e-014 -2.38542e-015
rhumerus 20.7725 -31.9831 -32.5145
rradius 47.6453
rwrist -6.92704
rhand -24.4171 8.85137
rfingers 7.12502
rthumb 2.0745 -21.1183
lclavicle 3.598e-014 -2.38542e-015
lhumerus -29.5365 10.4892 44.8213
lradius 32.5174
lwrist -0.185744
lhand -36.0984 21.9243
lfingers 7.12502
lthumb -9.20476 51.7034
rfemur -9.49393 18.511 3.40251
rtibia 24.8675
rfoot -20.3317 -19.109
rtoes -12.0261
lfemur -22.514 -0.455725 -5.18773
ltibia 34.0778
lfoot -11.3353 4.92801
ltoes -14.1172
1136
root 0.596116 17.9758 -3.34455 3.28047 4.76415 0.0788091
lowerback 16.57 3.15458 -0.135982
upperback 4.5771 3.97821 -2.82604
thorax -4.18243 1.97135 -3.69507
lowerneck -11.1091 -2.93939 -6.79344
upperneck 10.6425 -4.23367 10.7031
head 5.4041 -1.62392 4.14841
rclavicle -3.3197e-014 1.19271e-015
rhumerus 20.5892 -32.146 -32.2204
rradius 47.8505
rwrist -7.1737
rhand -24.3065 8.80136
rfingers 7.12502
rthumb 2.18134 -21.1672
lclavicle -3.3197e-014 1.19271e-015
lhumerus -29.5174 9.97136 45.0843
lradius 33.4132
lwrist 0.463631
lhand -35.9218 22.3484
lfingers 7.12502
lthumb -9.03435 52.1349
rfemur -8.8797 18.7647 3.55321
rtibia 24.3268
rfoot -20.2298 -18.9234
rtoes -11.6505
lfemur -21.5566 -0.491847 -5.13898
ltibia 33.5071
lfoot -11.4214 5.21377
ltoes -13.3764
1137
root 0.569309 17.9893 -3.31005 2.9365 4.35976 0.0526064
lowerback 16.2075 3.11297 -0.298438
upperback 4.37105 3.89664 -2.89482
thorax -4.21842 1.92977 -3.64529
lowerneck -10.6832 -2.85812 -6.89973
upperneck 10.5198 -4.13734 10.8586
head 5.28999 -1.58559 4.22574
rclavicle -3.83654e-014 3.18055e-014
rhumerus 20.1967 -32.148 -31.913
rradius 48.0254
rwrist -7.22839
rhand -24.4929 8.97723
rfingers 7.12502
rthumb 2.00132 -20.9931
lclavicle -3.83654e-014 3.18055e-014
lhumerus -29.6391 9.35647 45.1957
lradius 34.1815
lwrist 0.873573
lhand -36.1035 22.524
lfingers 7.12502
lthumb -9.20964 52.3029
rfemur -8.27548 18.9983 3.77233
rtibia 23.7893
rfoot -19.9918 -18.7816
rtoes -11.8341
lfemur -20.5641 -0.591064 -5.00762
ltibia 32.901
lfoot -11.4778 5.55272
ltoes -13.0261
1138
root 0.54276 18.0057 -3.27776 2.61113 3.92092 0.0381173
lowerback 15.9692 3.08438 -0.43157
upperback 4.12878 3.83116 -3.00828
thorax -4.35222 1.89453 -3.67298
lowerneck -10.3919 -2.81519 -6.8189
upperneck 10.5034 -4.10452 10.8565
head 5.23035 -1.57535 4.21576
rclavicle -2.60408e-014 8.74653e-015
rhumerus 19.6973 -32.0844 -31.577
rradius 48.1838
rwrist -7.18305
rhand -25.0856 9.09035
rfingers 7.12502
rthumb 1.4289 -20.8846
lclavicle -2.60408e-014 8.74653e-015
lhumerus -29.6682 8.71817 45.294
lradius 34.9638
lwrist 1.22041
lhand -36.6704 22.4739
lfingers 7.12502
lthumb -9.75669 52.2279
rfemur -7.77573 19.2392 3.96548
rtibia 23.3554
rfoot -19.7446 -18.6222
rtoes -12.0044
lfemur -19.5699 -0.640813 -4.90536
ltibia 32.2621
lfoot -11.5021 5.91028
ltoes -13.7201
1139
root 0.519158 18.0228 -3.2508 2.41361 3.46363 0.0494507
lowerback 15.6675 3.05702 -0.543398
upperback 3.91011 3.77278 -3.13023
thorax -4.424 1.86401 -3.71776
lowerneck -10.4987 -2.81998 -6.74895
upperneck 10.7278 -4.12566 10.7796
head 5.31654 -1.58113 4.17906
rclavicle 3.65764e-014 -1.74931e-014
rhumerus 19.2275 -32.0204 -31.1826
rradius 48.3342
rwrist -7.25785
rhand -25.3771 9.15079
rfingers 7.12502
rthumb 1.14737 -20.8259
lclavicle 3.65764e-014 -1.74931e-014
lhumerus -29.65 8.20412 45.4296
lradius 35.7978
lwrist 1.50864
lhand -36.9151 22.5585
lfingers 7.12502
lthumb -9.99271 52.3013
rfemur -7.55695 19.4236 4.06023
rtibia 23.0178
rfoot -19.3081 -18.5655
rtoes -12.6448
lfemur -18.74 -0.682651 -4.84404
ltibia 31.6309
lfoot -11.4595 6.32355
ltoes -13.0804
1140
root 0.493258 18.0357 -3.22829 2.21583 2.97454 0.0953753
lowerback 15.5155 3.05359 -0.689348
upperback 3.61762 3.73353 -3.26303
thorax -4.65453 1.8404 -3.77229
lowerneck -10.594 -2.78863 -6.57989
upperneck 11.0548 -4.11044 10.6179
head 5.42537 -1.5692 4.10263
rclavicle -3.18055e-014 -2.38542e-015
rhumerus 18.6628 -31.9014 -30.7458
rradius 48.4361
rwrist -7.31453
rhand -25.3887 9.24393
rfingers 7.12502
rthumb 1.13616 -20.7328
lclavicle -3.18055e-014 -2.38542e-015
lhumerus -29.7116 7.7148 45.4883
lradius 36.468
lwrist 1.51606
lhand -36.9045 22.075
lfingers 7.12502
lthumb -9.98252 51.8183
rfemur -7.36776 19.6645 4.11631
rtibia 22.7074
rfoot -18.8385 -18.5213
rtoes -13.4437
lfemur -17.9305 -0.806014 -4.80254
ltibia 31.0413
lfoot -11.5057 6.78434
ltoes -12.8604
1141
root 0.465906 18.0434 -3.20515 1.99718 2.41928 0.0106255
lowerback 15.314 3.07034 -0.692157
upperback 3.35242 3.74682 -3.37527
thorax -4.81843 1.84263 -3.89102
lowerneck -10.3765 -2.71335 -6.51716
upperneck 11.0604 -4.04434 10.7364
head 5.3851 -1.5327 4.13702
rclavicle 2.78299e-014 -4.45278e-014
rhumerus 18.1417 -31.9126 -30.4022
rradius 48.4763
rwrist -7.00598
rhand -25.2861 9.60587
rfingers 7.12502
rthumb 1.23525 -20.3703
lclavicle 2.78299e-014 -4.45278e-014
lhumerus -29.7088 7.24121 45.5226
lradius 37.0846
lwrist 1.60205
lhand -36.8715 21.7949
lfingers 7.12502
lthumb -9.95065 51.5397
rfemur -7.09328 19.9602 4.30577
rtibia 22.4006
rfoot -18.7723 -18.177
rtoes -13.2355
lfemur -17.1048 -0.829258 -4.60429
ltibia 30.5032
lfoot -11.6103 7.15377
ltoes -13.3543
1142
root 0.438867 18.0522 -3.18088 1.74507 1.88672 -0.172285
lowerback 15.0276 3.05373 -0.649733
upperback 3.25731 3.73444 -3.42219
thorax -4.75886 1.83621 -3.9471
lowerneck -10.344 -2.57446 -6.59665
upperneck 10.8936 -3.87444 11.062
head 5.32082 -1.43594 4.26759
rclavicle -1.92821e-014 -1.82882e-014
rhumerus 17.8534 -32.0538 -30.1476
rradius 48.5034
rwrist -6.73297
rhand -25.0717 9.83496
rfingers 7.12502
rthumb 1.44234 -20.1399
lclavicle -1.92821e-014 -1.82882e-014
lhumerus -29.539 7.01208 45.6007
lradius 37.6854
lwrist 1.74309
lhand -37.0478 21.1269
lfingers 7.12502
lthumb -10.1208 50.8635
rfemur -6.73857 20.2361 4.62366
rtibia 22.0664
rfoot -18.7561 -17.7763
rtoes -12.8202
lfemur -16.2599 -0.846767 -4.30894
ltibia 30.0075
lfoot -11.7168 7.51371
ltoes -12.3005
